<?xml version="1.0" encoding="utf-8"?>
<!-- Generator: Adobe Illustrator 19.1.0, SVG Export Plug-In . SVG Version: 6.00 Build 0)  -->
<svg version="1.1" id="Capa_1" xmlns="http://www.w3.org/2000/svg" xmlns:xlink="http://www.w3.org/1999/xlink" x="0px" y="0px"
	 viewBox="0 0 566.9 566.9" style="enable-background:new 0 0 566.9 566.9;" xml:space="preserve">
<style type="text/css">
	.st0{fill:#222E55;}
	.st1{fill:#4F909E;stroke:#4F909E;stroke-miterlimit:10;}
	.st2{fill:#4F909E;}
</style>
<g>
	<path class="st0" d="M101.9,223.7c121.3,0,242,0,363.1,0c0,51.8,0,103.3,0,155.8c-8.2,0-16.3,0-24.4,0c-10,0-20-0.1-30.1,0
		c-20,0.4-31.5,12-31.6,31.8c-0.1,17.7,0,35.4,0,53.8c-2.9,0.2-5.3,0.4-7.8,0.4c-83.5,0-167,0-250.4,0c-12.7,0-19.2-6.1-19.2-18.7
		c-0.1-73.2,0-146.4,0-219.6C101.5,226.4,101.7,225.4,101.9,223.7z M281.9,287.3c-3-2.3-7.4-6.2-12.3-9.3
		c-26.1-16.4-61.2,0.5-64.6,31.2c-1.6,14.6,0.7,28.7,7.9,41.7c15.4,28,38.5,48.3,65.1,65c4.8,3,8.7,1.5,12.8-1.1
		c21.7-13.7,40.6-30.5,55.8-51.2c11.7-16.1,17.5-34.1,15.6-54.2c-2.3-24-27.9-43-51-36.5C301.2,275.6,292.3,282,281.9,287.3z"/>
	<path class="st0" d="M358.4,145.1c0,8.1-0.1,15.2,0,22.4c0.3,12.5,9,21.7,20.9,22.2c12.8,0.5,22.1-7.6,23-20.7
		c0.6-7.6,0.1-15.3,0.1-23.5c17,0,33-0.7,49,0.3c8.6,0.5,13.5,6.9,13.7,15.1c0.4,16.4,0.1,32.8,0.1,49.7c-121.3,0-242.1,0-363.6,0
		c0-17.2-0.4-34.4,0.2-51.5c0.2-7.5,6.7-13.7,14.2-14c15.8-0.5,31.7-0.2,48.4-0.2c0,7.9-0.1,15.3,0,22.7
		c0.2,12.3,9.2,21.5,21.2,21.9c12.2,0.4,22.1-8.9,22.6-21.3c0.3-7.6,0.1-15.3,0.1-23.2C258.8,145.1,308.1,145.1,358.4,145.1z"/>
	<path class="st0" d="M390.6,455.6c0-15.8-0.4-31.7,0.2-47.5c0.4-10.9,7.1-16.7,17.9-16.8c15.5-0.2,31-0.1,46.4-0.1
		C433.4,412.9,412.1,434.1,390.6,455.6z"/>
	<path class="st0" d="M465.4,402.4c0,15.8,0.2,32.2-0.1,48.5c-0.1,7.5-6.4,14.4-13.4,14.6c-16.8,0.4-33.6,0.1-49.9,0.1
		C423.1,444.5,444.2,423.5,465.4,402.4z"/>
	<path class="st0" d="M175.7,138.7c0-8.7-0.2-17.5,0-26.2c0.2-7.8,3.6-11.2,10.5-11.2c6.9,0,10.7,3.6,10.8,11.1
		c0.2,17.7,0.2,35.4,0,53.1c-0.1,7.9-4.3,12.1-11,11.9c-6.5-0.1-10.1-4.1-10.3-11.8C175.5,156.6,175.7,147.6,175.7,138.7z"/>
	<path class="st0" d="M391.2,138.8c0,8.7,0.1,17.5,0,26.2c-0.2,8.3-3.7,12.3-10.5,12.4c-6.7,0.1-10.8-4.1-10.9-12.1
		c-0.2-17.5-0.2-34.9,0-52.4c0.1-8.1,3.8-11.8,10.9-11.7c6.9,0.1,10.2,3.5,10.4,11.4C391.4,121.3,391.2,130.1,391.2,138.8z"/>
	<path class="st0" d="M247.3,283.4c12.6-0.4,21.1,6.7,28.6,15.5c7.1,8.4,8.4,8.4,15.5-0.6c13.3-16.8,30.4-20.1,47.2-8.4
		c12.1,8.4,13.6,21.1,11.9,34.4c-2.9,23.8-18.1,40.4-34.4,55.8c-8.9,8.4-19.1,15.4-29.1,22.6c-1.8,1.3-6.1,1.4-7.9,0.1
		c-22.1-15.3-42.5-32.4-55.7-56.5c-6.5-11.8-8.9-24.5-6.6-37.9C219.5,293.7,232.1,283.4,247.3,283.4z"/>
</g>
</svg>
