<?xml version="1.0" encoding="utf-8"?>
<!-- Generator: Adobe Illustrator 19.1.0, SVG Export Plug-In . SVG Version: 6.00 Build 0)  -->
<svg version="1.1" id="Capa_1" xmlns="http://www.w3.org/2000/svg" xmlns:xlink="http://www.w3.org/1999/xlink" x="0px" y="0px"
	 viewBox="0 0 566.9 566.9" style="enable-background:new 0 0 566.9 566.9;" xml:space="preserve">
<style type="text/css">
	.st0{fill:#222E55;}
	.st1{fill:#4F909E;stroke:#4F909E;stroke-miterlimit:10;}
	.st2{fill:#4F909E;}
</style>
<g>
	<path class="st0" d="M265,265.7c5.3-5.8,10.1-12,15.8-17.2c11.1-10.2,24.2-15.9,39.7-14c27.2,3.3,37.5,29.4,35.2,49.9
		c-2.1,19-9.6,36.2-19,52.4c-13.8,23.8-28.9,46.8-43.7,70.1c-1.6,2.6-4.9,4.2-7.7,6.5c0,0.9,0,2.8,0,4.8c-2-0.4-4.5-0.2-6-1.3
		c-51.9-38.3-80.3-90.5-89.5-153.6c-1.3-8.6-1.1-17.8,0.4-26.3c3.1-17.7,19-25,34.7-16c6.2,3.6,11.9,8.8,16.6,14.3
		C249.9,244.9,257.2,255.4,265,265.7z M274.1,404.6c6-8.9,10.9-16.2,15.8-23.4c16.1-23.4,31.7-47.1,41.6-74
		c4.4-12.1,8.5-24.3,4.9-37.4c-3.9-14-13-19.9-27-16.5c-4.7,1.1-10,3.4-13.2,6.8c-7.9,8.3-15.2,17.2-22,26.5
		c-6.9,9.5-13.5,9.5-19.7-0.2c-8.7-13.6-17.9-26.9-27.3-40c-2.6-3.6-6.6-6.6-10.5-8.8c-4.4-2.6-8.4-1.2-9.6,4.2
		c-0.8,3.8-1.4,8-0.9,11.8c4.8,37.9,15.3,74.1,36.3,106.4C252.4,375.1,263.5,389.7,274.1,404.6z"/>
	<path class="st0" d="M374.7,276.7c-1.8-1.8-4.5-3.3-4.8-5.2c-0.4-2.2,0.5-5.6,2.1-6.9c7.6-6.3,15.6-12.1,23.6-17.8
		c8.2-5.9,16.6-11.4,24.9-17.2c3.1-2.1,6.1-3.2,8.8,0.3c2.9,3.7-0.3,5.7-2.7,7.7c-15.2,11.9-30.4,23.8-45.7,35.7
		C379.3,274.4,377.3,275.2,374.7,276.7z"/>
	<path class="st0" d="M341.7,218.3c1.9-6.3,3.1-11.5,5.1-16.3c5.2-12.4,10.6-24.6,16.4-36.7c0.8-1.7,3.7-2.3,5.7-3.4
		c0.6,2.3,2.4,5,1.7,6.9c-5.5,16.5-11.5,32.8-17.3,49.2c-1.1,3.1-2.6,6.3-6.6,4.8C344.6,222,343.1,219.6,341.7,218.3z"/>
	<path class="st0" d="M299.6,174.2c0,8-0.1,16,0,24c0.1,3.8-1.3,6.2-5.3,6.1c-4.2-0.1-5.1-2.9-4.8-6.6c1.1-15.5,1.9-31,3.3-46.5
		c0.2-2,2.6-3.8,4-5.7c1,2,2.6,4,2.7,6C299.8,159.1,299.6,166.7,299.6,174.2z"/>
	<path class="st0" d="M230.6,191.1c-0.8,0.9-2,3.1-3.2,3.1c-1.7,0.1-4.6-1-5.1-2.3c-4-11.2-7.6-22.5-11.1-33.9
		c-0.3-0.9,1.7-3.7,2.3-3.6c1.9,0.4,4.8,1.2,5.4,2.7c4,10.3,7.5,20.8,11.2,31.2C230.3,188.9,230.3,189.6,230.6,191.1z"/>
	<path class="st0" d="M164.2,214.2c-1,0.9-2.1,2.8-3.6,3.2c-1.5,0.4-4-0.3-4.9-1.4c-6.4-7.7-12.5-15.6-18.6-23.6
		c-0.7-0.9-0.9-3.1-0.2-3.9c0.7-0.8,3.3-1.4,3.8-0.9c7.8,8.1,15.5,16.3,23.1,24.6C164,212.4,163.9,213,164.2,214.2z"/>
</g>
</svg>
