<?xml version="1.0" encoding="utf-8"?>
<!-- Generator: Adobe Illustrator 19.1.0, SVG Export Plug-In . SVG Version: 6.00 Build 0)  -->
<svg version="1.1" id="Capa_1" xmlns="http://www.w3.org/2000/svg" xmlns:xlink="http://www.w3.org/1999/xlink" x="0px" y="0px"
	 viewBox="0 0 566.9 566.9" style="enable-background:new 0 0 566.9 566.9;" xml:space="preserve">
<style type="text/css">
	.st0{fill:#222E55;}
	.st1{fill:#4F909E;stroke:#4F909E;stroke-miterlimit:10;}
	.st2{fill:#4F909E;}
</style>
<g>
	<path class="st0" d="M72.7,285c-0.5-37,3.7-73.2,18.8-107.6c13.8-31.3,29.7-37.2,59.2-20.5c30.7,17.3,55.9,40.8,76.8,69.2
		c7.7,10.4,11.2,21.7,10.6,34.2c-0.8,16.6-2,33.2-3.9,49.8c-2.4,21.4-11.2,39.3-28.9,52.8c-17.8,13.6-34.7,28.4-52.2,42.5
		c-2.9,2.3-6.2,4.2-9.4,6.1c-23.6,13.6-38.3,9-50.3-15.4c-13.4-27-18.3-56-20.6-85.6C72.2,302.1,72.7,293.5,72.7,285z"/>
	<path class="st0" d="M494.4,281.9c-0.5,38.9-4.1,74.9-19.2,108.9c-13.7,30.8-31,36.2-59.3,18.2c-25-15.8-46-36-65.2-58.3
		c-2.2-2.6-3.7-7.3-3.1-10.5c6.2-31.8,0.7-62.2-11.1-91.7c-2.4-6-2.7-10.2,0.8-15.9c19.7-31.5,45.7-56.5,77.5-75.3
		c29.2-17.2,45.8-11.4,59.5,19.5C489.7,211.1,494.1,247.3,494.4,281.9z"/>
	<path class="st0" d="M290.5,353.3c-11.1-2.8-24.3-5.6-37.2-9.4c-6.2-1.9-7.8-6.5-6.4-13.7c5.3-26.6,9.3-53.5,6.2-80.9
		c-0.3-3,2-8.3,4.5-9.4c14.2-6.2,29.2-10,44.4-5.5c5.7,1.7,12.4,6.7,14.9,11.9c13.6,29.3,18.8,60.2,12.9,92.2
		c-0.6,3.4-4.7,7.7-8,8.7C312.5,350,302.7,351.1,290.5,353.3z"/>
</g>
</svg>
