<?xml version="1.0" encoding="utf-8"?>
<!-- Generator: Adobe Illustrator 19.1.0, SVG Export Plug-In . SVG Version: 6.00 Build 0)  -->
<svg version="1.1" id="Capa_1" xmlns="http://www.w3.org/2000/svg" xmlns:xlink="http://www.w3.org/1999/xlink" x="0px" y="0px"
	 viewBox="0 0 566.9 566.9" style="enable-background:new 0 0 566.9 566.9;" xml:space="preserve">
<style type="text/css">
	.st0{fill:#222E55;}
	.st1{fill:#4F909E;stroke:#4F909E;stroke-miterlimit:10;}
	.st2{fill:#4F909E;}
</style>
<g>
	<g>
		<path class="st1" d="M146.3,283.5c0-31.9-0.2-63.9,0.1-95.8c0.2-20.7,20.6-41.2,41.3-41.3c63.9-0.2,127.7-0.2,191.6,0
			c20.7,0.1,41.2,20.6,41.3,41.3c0.2,63.9,0.2,127.7,0,191.6c-0.1,20.7-20.6,41.2-41.3,41.3c-63.9,0.2-127.7,0.2-191.6,0
			c-20.7-0.1-41.1-20.6-41.3-41.3C146.1,347.3,146.3,315.4,146.3,283.5z M282.9,398.3c29.2,0,58.4,0,87.7,0
			c18.7,0,27.7-9.1,27.7-27.8c0-58.1,0-116.1,0-174.2c0-18.4-9.1-27.6-27.4-27.6c-58.2,0-116.5,0-174.7,0
			c-18.3,0-27.4,9.2-27.4,27.6c0,58.1,0,116.1,0,174.2c0,18.8,9,27.8,27.7,27.9C225.2,398.3,254,398.3,282.9,398.3z"/>
		<path class="st1" d="M352.2,283.5c0,37.9-30.7,68.6-68.6,68.7c-38.1,0.1-69-30.9-68.8-69c0.2-37.9,31-68.5,68.9-68.4
			C321.5,214.8,352.2,245.6,352.2,283.5z M283.3,329.1c25.3,0.2,45.8-20.3,45.8-45.6c0-25.1-19.9-45.3-45.2-45.7
			c-25.2-0.4-45.8,19.9-46.1,45.3C237.6,308.3,257.9,328.9,283.3,329.1z"/>
		<path class="st1" d="M375.2,209.2c-0.1,9.5-8.3,17.4-17.7,17.1c-9.2-0.3-16.9-8.2-16.9-17.3c0-9.4,8-17.4,17.5-17.3
			C367.6,191.8,375.4,199.7,375.2,209.2z"/>
	</g>
</g>
</svg>
