<?xml version="1.0" encoding="utf-8"?>
<!-- Generator: Adobe Illustrator 19.1.0, SVG Export Plug-In . SVG Version: 6.00 Build 0)  -->
<svg version="1.1" id="Capa_1" xmlns="http://www.w3.org/2000/svg" xmlns:xlink="http://www.w3.org/1999/xlink" x="0px" y="0px"
	 viewBox="0 0 566.9 566.9" style="enable-background:new 0 0 566.9 566.9;" xml:space="preserve">
<style type="text/css">
	.st0{fill:#222E55;}
	.st1{fill:#4F909E;stroke:#4F909E;stroke-miterlimit:10;}
	.st2{fill:#4F909E;}
</style>
<g>
	<path class="st0" d="M278.2,187.8c-3.2,46.5-15.5,90.9-40.9,131.2c-8.2,13.1-18.1,24.8-31.8,32.8c-1.9,1.1-3.4,3.7-4,5.9
		c-6.4,21.5-12.7,43.1-18.5,64.8c-0.6,2.3,1,6.4,2.9,8c8.6,7.3,18,13.6,26.4,21c2.5,2.2,3.1,6.7,4.6,10.1c-3.8,1.1-8,3.8-11.5,3
		c-20.7-4.7-41.1-10.2-61.7-15.4c-11.4-2.9-22.8-5.8-34.2-8.7c-4.5-1.1-8.3-2.8-7.7-8.6c0.5-5.6,4.6-6,8.8-6.7
		c11.6-1.9,23.3-3.5,34.8-5.8c2.3-0.5,5.2-3.1,5.8-5.3c6.3-20.5,12.2-41.1,18-61.8c0.6-2.1,0.5-5.3-0.7-7
		c-8.7-11.9-11.7-25.7-12.5-39.8c-2.7-51.2,10.4-98.7,34.4-143.6c3-5.6,8-7.9,14.3-6.2c21.4,5.9,42.9,11.7,64.2,17.9
		C275.5,175.4,278.2,180.4,278.2,187.8z M259.7,243.1c2.4-17.8,5-35.4,7-53.1c0.2-2.1-1.9-6.1-3.7-6.6
		c-19.1-5.8-38.3-11.1-57.5-16.2c-1.9-0.5-5.8,1.1-6.6,2.7c-7.1,14.9-13.8,30-20.4,44.7c9.9,2.3,18.5,3.8,26.7,6.5
		c2.2,0.7,3.4,4.6,5.1,7.1c-3,0.9-6.1,2.8-9,2.5c-6.3-0.6-12.4-2.5-18.7-3.5c-4.8-0.8-7.3,1.2-8.5,6.4c-5.4,22.5-9.1,45.3-7.2,68.4
		c0.9,11,3.7,22.3,8,32.4c5,11.8,14.9,13.9,26.1,7.5c2.7-1.5,5.2-3.3,7.5-5.3c23.9-22.1,36-51,46.4-81.6
		c-13.4-0.2-25.2-2.7-35.3-10.5c-3-2.3-7.1-4.6-3.8-9.2c3.1-4.4,6.6-2.3,9.9,0.3C235.1,242.5,245.8,244.6,259.7,243.1z M162.2,416.4
		c3.9,1,6.8,1.8,10.2,2.7c6-20.9,11.9-41.6,17.9-62.6c-4.1-0.7-7-1.3-10.3-1.9C174,375.3,168.2,395.7,162.2,416.4z M190.6,449.8
		c0.2-0.5,0.4-1,0.6-1.4c-7.4-5.7-14.7-11.8-22.4-17.1c-2.8-1.9-7-3.2-10.4-2.8c-9.6,1-19,3-28.6,4.6c-0.1,0.3-0.1,0.7-0.2,1
		C149.9,439.4,170.2,444.6,190.6,449.8z"/>
	<path class="st0" d="M312,254.6c10.6,31.5,22.6,61.3,48,83.1c15.2,13,27.7,9.3,35-9.4c0.9-2.4,1-5.4,2.5-7.1c1.7-1.9,4.6-2.7,7-4
		c1.1,2.3,3.6,5.1,3,6.8c-2.2,6.7-5.7,13-8.3,19.7c-1.1,2.8-2.3,6.3-1.5,9c5.6,20.4,11.5,40.8,17.8,61.1c0.7,2.4,3.9,5.1,6.4,5.6
		c11.5,2.3,23.2,4,34.8,5.9c4.3,0.7,8,1.6,8.3,7.1c0.3,5.5-3.4,7-7.5,8.1c-31.7,8.1-63.4,16.2-95.1,24.1c-4.3,1.1-9.5,2.7-12.3-2.7
		c-2.8-5.4,1.4-8.3,5.2-11.2c8.6-6.5,16.9-13.3,25.6-19.7c3.3-2.4,4.5-4.6,3.2-8.9c-6.4-21.3-12.3-42.7-18.6-64
		c-0.6-2.1-1.6-4.7-3.2-5.7c-24.2-14.4-37.1-37.6-48.2-62c-14.9-32.4-23.2-66.5-25.2-102.1c-0.4-7.9,2.6-12.8,10.2-15
		c20.4-5.8,40.8-11.6,61.3-17.1c8.4-2.3,12.9-0.2,17,7.7c21.9,41.4,34.2,85.2,33.8,132.3c0,1.8,0.6,4.1-0.3,5.3
		c-1.4,2-3.8,3.3-5.8,4.8c-1.6-2.3-4.3-4.5-4.5-6.9c-1.4-14.2-1.8-28.6-3.3-42.8c-0.8-7.8-3.2-15.5-4.5-23.3c-0.8-4.9-3.5-6.3-8-6.1
		c-10.5,0.4-20.7,2.2-28.4,9.7C344.2,248.6,330.1,255.1,312,254.6z M389.2,216.2c-7.3-16.3-14-30.9-20.4-45.6
		c-1.7-3.9-4.1-4.6-7.9-3.6c-18.9,5.4-37.9,10.5-56.7,16.2c-1.8,0.6-4.3,3.9-4.1,5.7c2.1,18.2,4.7,36.3,7,53.8
		c14.9,2,26.3,0.1,34.4-7.7C354.3,222.6,369,215.8,389.2,216.2z M376.6,356.7c6.1,21.3,12.1,41.9,18,62.5c3.8-1.1,6.8-2,10.1-3
		c-6-20.9-11.8-41.1-17.8-61.7C383.3,355.2,380.4,355.9,376.6,356.7z M375.8,448.4c0.2,0.5,0.4,0.9,0.6,1.4
		c20.3-5.2,40.6-10.4,60.9-15.6c-9.7-2.7-19.2-4.5-28.8-5.7c-2.8-0.4-6.4-0.1-8.6,1.5C391.6,435.8,383.8,442.2,375.8,448.4z"/>
	<path class="st0" d="M278.1,121.5c0-4.6-0.5-9.3,0.2-13.7c0.3-2.1,3.1-3.7,4.8-5.6c1.9,1.9,5.4,3.6,5.5,5.6
		c0.6,9.1,0.6,18.4,0,27.5c-0.1,2-3.1,3.8-4.8,5.7c-1.9-1.9-5-3.6-5.5-5.8C277.5,130.8,278.1,126.1,278.1,121.5z"/>
	<path class="st0" d="M308.6,145.4c-1-3.8-3.3-7.5-2.2-9.2c4.7-7.6,10-14.9,15.7-21.7c1.1-1.4,5.3-1.5,7.2-0.6
		c1.2,0.6,1.9,5.1,1,6.6c-4.7,7.3-10,14.2-15.3,21.2C314.1,142.9,312.2,143.4,308.6,145.4z"/>
	<path class="st0" d="M254.5,142.9c-0.9-0.7-2.8-1.5-4-3c-4.5-5.8-9.2-11.6-12.9-18c-1.3-2.1,0.1-5.7,0.2-8.7
		c2.8,0.9,6.6,0.9,8.3,2.8c4.9,5.5,9.1,11.6,13.1,17.8C262.1,138.2,260,142.8,254.5,142.9z"/>
</g>
</svg>
