<?xml version="1.0" encoding="utf-8"?>
<!-- Generator: Adobe Illustrator 19.1.0, SVG Export Plug-In . SVG Version: 6.00 Build 0)  -->
<svg version="1.1" id="Capa_1" xmlns="http://www.w3.org/2000/svg" xmlns:xlink="http://www.w3.org/1999/xlink" x="0px" y="0px"
	 viewBox="0 0 566.9 566.9" style="enable-background:new 0 0 566.9 566.9;" xml:space="preserve">
<style type="text/css">
	.st0{fill:#222E55;}
	.st1{fill:#4F909E;stroke:#4F909E;stroke-miterlimit:10;}
	.st2{fill:#4F909E;}
</style>
<g>
	<path class="st2" d="M431.7,313.9c-8.4-6.7-15.1-5.6-22.9,1.2c-8.8,7.7-18.7,14.3-28.1,21.3c-11.6,8.7-14.6,7.3-17.1-7.3
		c-2.7-15.9-6.2-31.7-8.2-47.7c-1-7.5-4.8-9.7-11.1-11.1c-15.8-3.4-31.5-7-47-11.3c-3.6-1-6.4-4.6-9.6-7.1c3.2-2,6.1-5,9.5-5.9
		c29.1-7.4,58.4-14.4,87.6-21.5c41.3-10,82.6-20,124.1-29.6c3.6-0.8,8.7,0.4,11.7,2.5c1.6,1.1,1.4,7.1-0.1,9.7
		c-20.3,35.7-40.9,71.3-61.7,106.7c-2.1,3.6-6.6,5.9-10.4,9.1C441.8,319.5,436.1,317.4,431.7,313.9z M305.3,251.3
		c0,0.8,0,1.6-0.1,2.4c16.5,4,32.9,8.3,49.5,11.8c3.1,0.7,7-1.6,10.3-3c39.2-16.6,78.3-33.3,117.5-49.8c3.5-1.5,7.4-2,11.2-3
		c0.5,1.2,1,2.4,1.5,3.6c-3.4,2-6.6,4.4-10.2,5.9c-38.1,16.3-76.1,32.8-114.4,48.6c-7.6,3.1-9.9,6.3-7.9,14.6
		c3.3,13.4,5,27.2,9.3,40.8c1.6-9.5,3.3-19,4.9-28.4c2.2-13.1,8.3-16.2,20-9.6c15,8.5,29.8,17.4,44.5,26.4c5,3,8.7,3.4,11.9-2.1
		c20.5-35.5,41.1-71,63.4-109.5C443.7,217.8,374.5,234.5,305.3,251.3z M378.2,329.2c12.5-9.3,22.9-17.1,35.1-26.1
		c-9.3-5.3-17.4-10-27.4-15.7C383.2,301.9,381,314.2,378.2,329.2z"/>
	<path class="st2" d="M160.5,328.1c4.7-5.4,8.7-10,13.9-16.2c-3.7-0.6-6.9-2-7.8-1.1c-6.9,6.5-13.5,13.4-19.7,20.5
		c-0.7,0.8,1.5,4,2.3,6.1c9.5-7.8,13.7,3.6,20.4,5.8c4.3,1.4,8.5,2.7,12.8,4c-3.1-3.4-5.9-7.1-9.3-10
		C169.6,334.1,165.5,331.7,160.5,328.1z"/>
	<path class="st2" d="M251.7,378c12.7,0,22.8,0.2,32.9-0.2c1.3,0,2.8-2.5,3.7-4.2c0.2-0.4-1.5-2.8-2.4-2.8
		c-10.1-0.1-20.3-0.1-30.4,0.2C254.8,371,254.2,373.3,251.7,378z"/>
	<path class="st2" d="M339.6,355.2c-10.1,3.9-20.2,7.8-30.4,11.7c3.4,7,5.9,6.8,25.3-2C342.3,361.5,342.3,361.5,339.6,355.2z"/>
	<path class="st2" d="M194.7,208.4c-0.5,2.4-1.8,5-1.3,7.1c1.9,7.6,4.3,15.2,6.8,22.6c0.6,1.7,2.3,2.9,3.5,4.4
		c1-1.6,3.2-3.4,2.9-4.8c-2.1-10-4.6-19.8-7-29.7C198,208.2,196.4,208.3,194.7,208.4z"/>
	<path class="st2" d="M177.9,192.8c-10.1-1.3-20.3-2.8-30.5-3.8c-1.4-0.1-3.3,1.9-4.3,3.4c-0.3,0.5,1.6,3.4,2.8,3.6
		c9.3,1.5,18.6,2.8,27.9,3.7c1.3,0.1,2.7-1.8,4.1-2.8C178,195.5,177.9,194.1,177.9,192.8z"/>
	<path class="st2" d="M187,295.5c5.2-9.9,10.4-19.7,15.6-29.6c-0.7-0.9-1.3-1.9-2-2.8c-2.3,1.2-6,2-6.6,3.7
		c-2.9,9.3-12,16.8-11.3,27.2C184.1,294.4,185.6,295,187,295.5z"/>
	<path class="st2" d="M98.8,363.4c6.8,5.5,17.8,1.3,32.5-11.5C126.9,347.4,126.9,347.4,98.8,363.4z"/>
	<path class="st2" d="M199.9,361c10.6,4,21.2,7.9,32.5,12.1c-0.3-8-6.2-11.7-25.7-17c-2-0.5-4.5,1-6.8,1.6
		C199.9,358.8,199.9,359.9,199.9,361z"/>
	<path class="st2" d="M79.9,367.3c-10.8-2.2-19.6-4.2-28.6-5.7c-1.9-0.3-4,1.3-6.1,2c1.1,1.5,2.1,4,3.5,4.3c8.5,2,17.1,3.8,25.7,4.9
		C75.9,372.9,77.9,369.4,79.9,367.3z"/>
	<path class="st2" d="M85.4,248.2c2.8,8.2,5.1,15.4,7.9,22.4c0.7,1.6,3.5,2.4,5.4,3.5c0.3-2.2,1.3-4.5,0.8-6.4
		c-1.6-6.7-3.5-13.3-5.6-19.8c-0.7-2.3-2.3-4.4-3.5-6.5C88.8,243.5,87.2,245.7,85.4,248.2z"/>
	<path class="st2" d="M95.9,221.6c2.2-0.6,4.8-0.7,6.4-2c6.2-5,12.1-10.3,17.9-15.6c1.3-1.2,1.8-3.3,2.7-5c-2.1-0.3-5.1-1.7-6.3-0.8
		c-7.9,6-15.5,12.6-23.2,18.9C94.3,218.6,95.1,220.1,95.9,221.6z"/>
	<path class="st2" d="M114.3,288.4c-2.8,7.8,2.8,14.7,21.2,27.5C138.7,309.7,134.7,304.5,114.3,288.4z"/>
</g>
</svg>
