<?xml version="1.0" encoding="utf-8"?>
<!-- Generator: Adobe Illustrator 19.1.0, SVG Export Plug-In . SVG Version: 6.00 Build 0)  -->
<svg version="1.1" id="Capa_1" xmlns="http://www.w3.org/2000/svg" xmlns:xlink="http://www.w3.org/1999/xlink" x="0px" y="0px"
	 viewBox="0 0 566.9 566.9" style="enable-background:new 0 0 566.9 566.9;" xml:space="preserve">
<style type="text/css">
	.st0{fill:#222E55;}
	.st1{fill:#4F909E;stroke:#4F909E;stroke-miterlimit:10;}
	.st2{fill:#4F909E;}
</style>
<g>
	<path class="st0" d="M280.9,126.1c25.2-30.4,58.9-27.3,77.9-14.3c24.8,16.9,30.9,43.5,16.5,78.8c5.1,0,9.7,0,14.4,0
		c19,0,37.9,0,56.9,0c13.7,0,17.9,4.1,17.9,17.6c0.1,19.8,0,39.6,0,59.5c0,16.6-2.4,19.1-19,19.4c-1.4,0-2.8,0.2-5.5,0.3
		c0,3.3,0,6.6,0,9.9c0,49.8,0,99.7,0,149.5c0,14.3-3.2,17.6-17.3,17.6c-92.9,0-185.8,0-278.7,0c-14.1,0-17.3-3.4-17.3-17.7
		c0-49.8,0-99.7,0-149.5c0-3.1,0-6.1,0-9.2c-1.4-0.5-2.2-0.9-3-0.9c-20.3-0.8-21.5-2-21.5-22.1c0-17.8,0-35.7,0-53.5
		c0-17.8,3.1-20.9,20.6-21c21.8,0,43.6,0,65.4,0c3,0,6,0,9.4,0c-11-31.9-6.2-54.5,14.2-69.6C233.5,105.1,254.7,106.7,280.9,126.1z
		 M271,439.5c0-51,0-101.3,0-151.8c-40.2,0-80,0-119.8,0c0,50.9,0,101.1,0,151.8C191.3,439.5,230.8,439.5,271,439.5z M415.9,287.8
		c-40.6,0-80.4,0-119.9,0c0,51,0,101.2,0,151.4c40.3,0,80,0,119.9,0C415.9,388.5,415.9,338.4,415.9,287.8z M271.2,215.8
		c-48.4,0-96,0-143.7,0c0,16,0,31.3,0,46.7c48.2,0,95.8,0,143.7,0C271.2,246.8,271.2,231.6,271.2,215.8z M295.7,262.5
		c48.5,0,96.1,0,143.6,0c0-16,0-31.4,0-46.6c-48.2,0-95.8,0-143.6,0C295.7,231.7,295.7,246.9,295.7,262.5z M294.6,190.3
		c13,0,24.3,0.5,35.6-0.1c16.4-0.8,28.8-13.9,29.6-30.5c0.7-15.5-11.6-30.7-26.5-32.6c-17.4-2.3-33.1,6.9-36.1,23.3
		C294.9,163,295.4,176.2,294.6,190.3z M271.3,190.5c0-10.6,0.7-20.2-0.2-29.7c-1.5-16.2-14.3-26.6-30.2-25.7
		c-14.9,0.9-25.6,12.4-25.6,27.4c0,16.3,10.6,27.2,27.7,27.9C252.1,190.8,261.2,190.5,271.3,190.5z"/>
</g>
</svg>
