<?xml version="1.0" encoding="utf-8"?>
<!-- Generator: Adobe Illustrator 19.1.0, SVG Export Plug-In . SVG Version: 6.00 Build 0)  -->
<svg version="1.1" id="Capa_1" xmlns="http://www.w3.org/2000/svg" xmlns:xlink="http://www.w3.org/1999/xlink" x="0px" y="0px"
	 viewBox="0 0 566.9 566.9" style="enable-background:new 0 0 566.9 566.9;" xml:space="preserve">
<style type="text/css">
	.st0{fill:#222E55;}
	.st1{fill:#4F909E;stroke:#4F909E;stroke-miterlimit:10;}
	.st2{fill:#4F909E;}
</style>
<g>
	<path class="st0" d="M315.3,365c13.8,6.2,28.4,10.9,40.8,18.9c26.5,17.3,26.1,45.7-0.8,62.6c-10.7,6.7-23.1,12.1-35.4,14.7
		c-32.7,7-65.4,6.5-96.3-8.1c-8.9-4.2-17.5-10.5-24-17.8c-13.6-15.3-9.7-36.3,8.4-49.6c6.5-4.8,13.8-8.7,21.2-11.8
		c7.4-3.2,15.4-4.9,23.6-7.4c-7.4-10.6-15.2-21.2-22.4-32.1c-21.2-31.8-40.3-64.7-48.6-102.7c-14-63.8,25.4-121.7,90.4-129.8
		c54.5-6.7,104.3,30.1,114.2,85.3c5.4,30.1-2.7,57.8-14.4,84.9c-13.5,31.1-32.3,59-52.1,86.2C317.9,361.2,316.1,363.9,315.3,365z
		 M283,375.4c1.3-1,2.1-1.4,2.5-2c23.8-31.7,47.8-63.2,65.3-98.9c12.9-26.4,23-53.9,16.9-84.2c-7.1-35.6-28.5-58.6-63.6-67.5
		c-34.6-8.8-64.1,1.6-86.8,28.5c-23,27.2-23.9,58.7-13.8,91.4c11.2,36.2,31.9,67.2,53.6,97.7C265.4,352.1,274.2,363.6,283,375.4z
		 M278.9,446.9c28.5,0,51.1-5.6,65.9-15.1c15-9.7,15.9-23.4,0.7-32.5c-10.1-6.1-22-9.1-33.2-13.5c-7.9-3.1-13.2-1.1-17.9,6.6
		c-7.4,12-13.2,11.7-21.6,0.7c-1.2-1.6-2-3.7-3.5-4.7c-2.5-1.7-6-4.3-8.2-3.6c-12.8,3.8-26.2,6.8-37.7,13.2c-18,10-17,24.9,1,35.2
		C242.8,443.6,262.8,446.6,278.9,446.9z"/>
	<path class="st0" d="M330.7,206.2c-0.3,25.7-22.3,47.2-47.8,46.8c-25.7-0.4-47.2-22.6-46.6-48c0.7-25.5,22.2-46.6,47.3-46.4
		C309.4,158.9,331,180.8,330.7,206.2z M312.1,205.5c-0.1-15.2-13.4-28.3-28.7-28.3c-15.6,0-28.8,13.6-28.5,29.3
		c0.3,15.1,13.8,28.1,29.1,27.8C299.2,234.2,312.2,220.8,312.1,205.5z"/>
</g>
</svg>
